Coordinates
version=1
nRows=10
nColumns=34
inDegrees=yes

Units are S.I. units (second, meters, Newtons, ...)
If the header above contains a line with 'inDegrees', this indicates whether rotational values are in degrees (yes) or radians (no).

endheader
time	pelvis_tilt	pelvis_list	pelvis_rotation	pelvis_tx	pelvis_ty	pelvis_tz	hip_flexion_r	hip_adduction_r	hip_rotation_r	knee_angle_r	ankle_angle_r	subtalar_angle_r	mtp_angle_r	hip_flexion_l	hip_adduction_l	hip_rotation_l	knee_angle_l	ankle_angle_l	subtalar_angle_l	mtp_angle_l	lumbar_extension	lumbar_bending	lumbar_rotation	arm_flex_r	arm_add_r	arm_rot_r	elbow_flex_r	pro_sup_r	arm_flex_l	arm_add_l	arm_rot_l	elbow_flex_l	pro_sup_l
      4.88333330	     -6.11417448	      0.68985857	     -1.04429095	      1.10962911	      0.98576314	     -0.11642743	      8.90332451	     -1.96286622	      2.44356369	     18.63915487	      7.83540157	     -8.36285761	      0.00000000	      9.57676948	     -1.57264504	      3.23473139	     20.93045564	      5.80717933	     -3.49850318	      0.00000000	      0.21619929	     -1.00938186	     -2.64979145	      1.68650550	     -4.75542400	      4.50433733	     31.34702242	     91.49980226	     -0.84684986	     -7.01084769	      4.15145506	     26.66248002	     81.08459605
      4.90000000	     -5.71376193	      0.61421669	     -0.97553813	      1.11176284	      0.98379088	     -0.11651419	      6.41589550	     -1.80149893	      3.04644615	     15.03113855	      5.81976771	     -8.62896895	      0.00000000	      7.13031345	     -1.44674446	      3.84328876	     17.21631122	      4.06993599	     -3.99059151	      0.00000000	      0.93795768	     -0.95275881	     -2.89623855	      0.74782442	     -4.80082481	      4.33419672	     31.33389648	     92.07667911	     -2.10062028	     -7.31934840	      3.66651461	     26.82564021	     81.79575246
      4.91666670	     -5.71389825	      0.64572437	     -0.95442841	      1.11550295	      0.98487405	     -0.11587500	      4.72827708	     -1.79094140	      3.15772446	     12.15772331	      4.34174809	     -8.39339666	      0.00000000	      5.47454353	     -1.27601536	      4.05937720	     14.22070687	      2.89444544	     -3.93271471	      0.00000000	      2.17582210	     -1.03570813	     -3.07158578	     -0.30917816	     -4.85184872	      4.25230028	     31.24327626	     92.27641884	     -3.19774130	     -7.61496119	      3.48820664	     26.68315772	     82.08881176
      4.93333330	     -4.96001685	      0.59264560	     -1.03524186	      1.11780603	      0.99134645	     -0.11755707	      2.45487597	     -1.67001393	      3.52814286	      9.52033532	      3.08257169	     -8.81372044	      0.00000000	      3.11331803	     -1.12671946	      4.88242348	     11.50977593	      1.85826282	     -4.81844845	      0.00000000	      1.94220070	     -1.02613162	     -3.36906962	     -0.80394681	     -5.00079478	      3.93715872	     31.42424446	     92.74662866	     -3.92552671	     -7.89127240	      3.06552764	     26.73780076	     82.88187518
      4.95000000	     -5.00095560	      0.53438618	     -1.25643624	      1.12014201	      0.98306387	     -0.11981511	      1.50577260	     -1.64790431	      3.83878109	      7.78868375	      2.75638267	     -8.62623871	      0.00000000	      1.97643033	     -0.99038404	      5.29988622	      9.62894351	      2.17797220	     -4.96219509	      0.00000000	      2.84480601	     -0.88269999	     -3.40635676	     -1.53476999	     -5.30769125	      3.83608873	     31.36870817	     92.82479669	     -4.68368910	     -8.14752875	      2.97670099	     26.58976039	     83.03494190
      4.96666670	     -4.86839013	      0.48319523	     -1.56641780	      1.11930296	      0.97643918	     -0.11720320	      0.61114024	     -1.55662959	      4.12165394	      6.49243701	      2.99526738	     -8.74983043	      0.00000000	      0.88032278	     -0.94018835	      5.71093522	      8.13799442	      2.81785963	     -5.36240649	      0.00000000	      3.43734129	     -0.88584444	     -3.40960380	     -1.90932607	     -5.64291161	      3.71078836	     31.39311044	     92.87636940	     -5.17569538	     -8.50716109	      2.88270321	     26.46882905	     83.16021747
      4.98333330	     -3.73554678	      0.39613023	     -1.92579020	      1.11912470	      0.97119318	     -0.11693740	     -1.27968961	     -1.42111480	      4.63697573	      5.36921465	      3.44144954	     -9.32250982	      0.00000000	     -1.20935829	     -0.89005535	      6.60707016	      6.77681534	      3.16581696	     -6.72568235	      0.00000000	      2.18036435	     -0.80057780	     -3.38064712	     -1.85442219	     -5.97579293	      3.30235948	     31.84427682	     93.12672660	     -5.08580772	     -8.86443252	      2.64805184	     26.52248949	     83.82778122
      5.00000000	     -3.67166438	      0.32240270	     -2.25562423	      1.11902944	      0.96458565	     -0.11459961	     -1.77982317	     -1.23391220	      4.97005115	      4.81839870	      4.42790913	     -9.69682773	      0.00000000	     -1.96340104	     -0.95801716	      7.04080711	      5.93172408	      4.23615232	     -7.19126636	      0.00000000	      2.67833550	     -0.87918280	     -3.36662510	     -2.14934735	     -6.20334790	      3.18655259	     31.83002199	     93.16234807	     -5.34604171	     -9.27159665	      2.56867941	     26.41246014	     83.94316681
      5.01666670	     -3.51646687	      0.29423469	     -2.59447311	      1.11918634	      0.95862037	     -0.11218046	     -2.38473551	     -1.05623758	      5.81506307	      4.15565864	      5.77338772	     -9.96089970	      0.00000000	     -2.79621921	     -0.97613936	      7.60247347	      5.17439844	      5.39840826	     -7.74871797	      0.00000000	      2.91160511	     -1.05588003	     -3.36707003	     -2.29753632	     -6.35172530	      3.04748540	     31.81214431	     93.19333865	     -5.43825886	     -9.74068648	      2.49641980	     26.27461057	     84.07035766
      5.03333330	     -2.47756016	      0.16403856	     -3.11024044	      1.11690445	      0.95384053	     -0.11105585	     -3.83669967	     -0.89045512	      6.63134809	      3.51309135	      7.16060467	    -10.15985212	      0.00000000	     -4.58109513	     -1.08177525	      8.22096171	      4.18654693	      6.11438938	     -8.88359027	      0.00000000	      1.49182261	     -1.12341292	     -3.10526621	     -1.85051683	     -6.47984996	      2.56153683	     31.67303658	     93.33016155	     -4.69930204	    -10.20974852	      2.56006449	     25.87298779	     84.68775050
